<?xml version="1.0" standalone="no"?><svg xmlns:xlink="http://www.w3.org/1999/xlink" xmlns="http://www.w3.org/2000/svg" viewBox="0 0 100 50" preserveAspectRatio="xMaxYMax slice"><g transform="scale(0.06934812760055478)"><rect x="0" y="0" width="1442" height="721" fill="#ffffff"/><rect x="0" y="0" width="360.5" height="360.5" fill="#7d93ee"/><path d="M 0 0 A 360.5 360.5 0 0 1  360.5 360.5 L 0 0 A 360.5 360.5 0 0 0 360.5 360.5" fill="#4362e7"/><rect x="360.5" y="0" width="360.5" height="360.5" fill="#ffffff"/><rect x="360.5" y="0" width="180.25" height="180.25" fill="#dfe4fb"/><path d="M 360.5 180.25 A 180.25 180.25 0 0 1  540.75 0 L 360.5 180.25 A 180.25 180.25 0 0 0 540.75 0" fill="#dce2fa"/><rect x="540.75" y="0" width="180.25" height="180.25" fill="#f7f5f9"/><path d="M 540.75 0 A 180.25 180.25 0 0 0 721 180.25 L 721 0L540.75 0" fill="#3e5fe6"/><rect x="360.5" y="180.25" width="180.25" height="180.25" fill="#bfcaf7"/><path d="M 360.5 180.25 A 180.25 180.25 0 0 1 540.75 360.5 L 360.5 360.5L360.5 180.25" fill="#f5f7fe"/><rect x="540.75" y="180.25" width="180.25" height="180.25" fill="#b8abca"/><path d="M 540.75 180.25 A 180.25 180.25 0 0 0 721 360.5 L 721 180.25L540.75 180.25" fill="#d8d1e2"/><rect x="721" y="0" width="360.5" height="360.5" fill="#f3f5fd"/><path d="M 721 0 A 360.5 360.5 0 0 1 1081.5 360.5 L 721 360.5L721 0" fill="#a1b1f3"/><rect x="1081.5" y="0" width="360.5" height="360.5" fill="#dbd5e4"/><path d="M 1081.5 0 A 360.5 360.5 0 0 1 1442 360.5 L 1081.5 360.5L1081.5 0" fill="#274ce3"/><rect x="0" y="360.5" width="360.5" height="360.5" fill="#6781eb"/><path d="M 0 360.5 A 360.5 360.5 0 0 0 360.5 721 L 360.5 360.5L0 360.5" fill="#e2ddea"/><rect x="360.5" y="360.5" width="360.5" height="360.5" fill="#d5cee0"/><path d="M 360.5 360.5 A 360.5 360.5 0 0 1  721 721 L 360.5 360.5 A 360.5 360.5 0 0 0 721 721" fill="#2146e2"/><rect x="721" y="360.5" width="360.5" height="360.5" fill="#c4bad4"/><path d="M 721 360.5 A 360.5 360.5 0 0 1  1081.5 721 L 721 360.5 A 360.5 360.5 0 0 0 1081.5 721" fill="#e3e8fb"/><rect x="1081.5" y="360.5" width="360.5" height="360.5" fill="#bcc7f6"/><path d="M 1081.5 721 A 360.5 360.5 0 0 1  1442 360.5 L 1081.5 721 A 360.5 360.5 0 0 0 1442 360.5" fill="#f7f6f9"/></g></svg>