<?xml version="1.0" standalone="no"?><svg xmlns:xlink="http://www.w3.org/1999/xlink" xmlns="http://www.w3.org/2000/svg" viewBox="0 0 200 92.30754966887419" preserveAspectRatio="xMaxYMax slice"><g transform="scale(0.13245033112582782)"><rect x="0" y="0" width="1510" height="696.9230769230769" fill="#ffffff"/><rect x="0" y="0" width="116.15" height="116.15" fill="#3b5ce5"/><path d="M 0 0 A 116.15 116.15 0 0 1  116.15 116.15 L 0 0 A 116.15 116.15 0 0 0 116.15 116.15" fill="#b3a5c6"/><rect x="116.15384615384616" y="0" width="116.15384615384616" height="116.15384615384616" fill="#ffffff"/><rect x="116.15" y="0" width="58.08" height="58.08" fill="#b3a6c7"/><path d="M 116.15 58.08 A 58.08 58.08 0 0 1  174.23000000000002 0 L 174.23000000000002 58.08L116.15 58.08" fill="#dfe5fb"/><rect x="174.23" y="0" width="58.08" height="58.08" fill="#98aaf2"/><path d="M 174.23 0 A 58.08 58.08 0 0 1  232.31 58.08 L 174.23 0 A 58.08 58.08 0 0 0 232.31 58.08" fill="#627deb"/><rect x="116.15" y="58.08" width="58.08" height="58.08" fill="#c2b7d1"/><path d="M 116.15 116.16 A 58.08 58.08 0 0 0 174.23000000000002 58.08 L 116.15 58.08L116.15 116.16" fill="#96a8f1"/><rect x="174.23" y="58.08" width="58.08" height="58.08" fill="#5975e9"/><path d="M 174.23 58.08 A 58.08 58.08 0 0 0 232.31 116.16 L 232.31 58.08L174.23 58.08" fill="#a090b9"/><rect x="232.31" y="0" width="116.15" height="116.15" fill="#f0edf4"/><path d="M 232.31 0 A 116.15 116.15 0 0 1 348.46000000000004 116.15 L 232.31 116.15L232.31 0" fill="#e3deea"/><rect x="348.46153846153845" y="0" width="116.15384615384616" height="116.15384615384616" fill="#ffffff"/><rect x="348.46" y="0" width="58.08" height="58.08" fill="#f5f3f7"/><path d="M 348.46 0 A 58.08 58.08 0 0 1  406.53999999999996 58.08 L 348.46 0 A 58.08 58.08 0 0 0 406.53999999999996 58.08" fill="#5f7aea"/><rect x="406.54" y="0" width="58.08" height="58.08" fill="#3658e5"/><path d="M 406.54 58.08 A 58.08 58.08 0 0 1  464.62 0 L 406.54 58.08 A 58.08 58.08 0 0 0 464.62 0" fill="#aa9ac0"/><rect x="348.46" y="58.08" width="58.08" height="58.08" fill="#a595bc"/><path d="M 348.46 58.08 A 58.08 58.08 0 0 0 406.53999999999996 116.16 L 406.53999999999996 58.08L348.46 58.08" fill="#274be3"/><rect x="406.54" y="58.08" width="58.08" height="58.08" fill="#e1e6fb"/><path d="M 406.54 116.16 A 58.08 58.08 0 0 0 464.62 58.08 L 406.54 58.08L406.54 116.16" fill="#516ee8"/><rect x="464.62" y="0" width="116.15" height="116.15" fill="#b6a9c9"/><path d="M 464.62 116.15 A 116.15 116.15 0 0 0 580.77 0 L 464.62 0L464.62 116.15" fill="#bec9f7"/><rect x="580.77" y="0" width="116.15" height="116.15" fill="#d2daf9"/><path d="M 580.77 0 A 116.15 116.15 0 0 1  696.92 116.15 L 580.77 0 A 116.15 116.15 0 0 0 696.92 116.15" fill="#dee3fb"/><rect x="696.92" y="0" width="116.15" height="116.15" fill="#3255e4"/><path d="M 696.92 0 A 116.15 116.15 0 0 1  813.0699999999999 116.15 L 696.92 0 A 116.15 116.15 0 0 0 813.0699999999999 116.15" fill="#afa1c4"/><rect x="813.0769230769231" y="0" width="116.15384615384616" height="116.15384615384616" fill="#ffffff"/><rect x="813.08" y="0" width="58.08" height="58.08" fill="#8ea1f0"/><path d="M 813.08 58.08 A 58.08 58.08 0 0 1  871.1600000000001 0 L 871.1600000000001 58.08L813.08 58.08" fill="#ccc3d9"/><rect x="871.15" y="0" width="58.08" height="58.08" fill="#cfc6db"/><path d="M 871.15 0 A 58.08 58.08 0 0 0 929.23 58.08 L 929.23 0L871.15 0" fill="#dfe5fb"/><rect x="813.08" y="58.08" width="58.08" height="58.08" fill="#b5a8c8"/><path d="M 813.08 58.08 A 58.08 58.08 0 0 1  871.1600000000001 116.16 L 813.08 58.08 A 58.08 58.08 0 0 0 871.1600000000001 116.16" fill="#d2cadd"/><rect x="871.15" y="58.08" width="58.08" height="58.08" fill="#264be3"/><path d="M 871.15 58.08 A 58.08 58.08 0 0 1  929.23 116.16 L 871.15 58.08 A 58.08 58.08 0 0 0 929.23 116.16" fill="#f2f4fd"/><rect x="929.2307692307693" y="0" width="116.15384615384616" height="116.15384615384616" fill="#ffffff"/><rect x="929.23" y="0" width="58.08" height="58.08" fill="#90a3f1"/><path d="M 929.23 0 A 58.08 58.08 0 0 1  987.3100000000001 58.08 L 929.23 0 A 58.08 58.08 0 0 0 987.3100000000001 58.08" fill="#dcd5e5"/><rect x="987.31" y="0" width="58.08" height="58.08" fill="#e7e3ed"/><path d="M 987.31 0 A 58.08 58.08 0 0 1  1045.3899999999999 58.08 L 987.31 0 A 58.08 58.08 0 0 0 1045.3899999999999 58.08" fill="#dee4fb"/><rect x="929.23" y="58.08" width="58.08" height="58.08" fill="#d1d9f9"/><path d="M 929.23 58.08 A 58.08 58.08 0 0 0 987.3100000000001 116.16 L 987.3100000000001 58.08L929.23 58.08" fill="#2348e2"/><rect x="987.31" y="58.08" width="58.08" height="58.08" fill="#bdc8f6"/><path d="M 987.31 58.08 A 58.08 58.08 0 0 1  1045.3899999999999 116.16 L 987.31 58.08 A 58.08 58.08 0 0 0 1045.3899999999999 116.16" fill="#6881eb"/><rect x="1045.3846153846155" y="0" width="116.15384615384616" height="116.15384615384616" fill="#ffffff"/><rect x="1045.38" y="0" width="58.08" height="58.08" fill="#b6a8c8"/><path d="M 1045.38 58.08 A 58.08 58.08 0 0 1  1103.46 0 L 1103.46 58.08L1045.38 58.08" fill="#9c8ab5"/><rect x="1103.46" y="0" width="58.08" height="58.08" fill="#9c8ab5"/><path d="M 1103.46 58.08 A 58.08 58.08 0 0 1  1161.54 0 L 1103.46 58.08 A 58.08 58.08 0 0 0 1161.54 0" fill="#d5cee0"/><rect x="1045.38" y="58.08" width="58.08" height="58.08" fill="#778eed"/><path d="M 1045.38 58.08 A 58.08 58.08 0 0 0 1103.46 116.16 L 1103.46 58.08L1045.38 58.08" fill="#a494bb"/><rect x="1103.46" y="58.08" width="58.08" height="58.08" fill="#b5a8c8"/><path d="M 1103.46 116.16 A 58.08 58.08 0 0 1  1161.54 58.08 L 1103.46 116.16 A 58.08 58.08 0 0 0 1161.54 58.08" fill="#d9d2e3"/><rect x="1161.54" y="0" width="116.15" height="116.15" fill="#cac1d8"/><path d="M 1161.54 116.15 A 116.15 116.15 0 0 1  1277.69 0 L 1277.69 116.15L1161.54 116.15" fill="#9aabf2"/><rect x="1277.69" y="0" width="116.15" height="116.15" fill="#869aef"/><path d="M 1277.69 0 A 116.15 116.15 0 0 1  1393.8400000000001 116.15 L 1277.69 0 A 116.15 116.15 0 0 0 1393.8400000000001 116.15" fill="#fdfdff"/><rect x="1393.85" y="0" width="116.15" height="116.15" fill="#4b6ae8"/><path d="M 1393.85 116.15 A 116.15 116.15 0 0 1  1510 0 L 1510 116.15L1393.85 116.15" fill="#4766e7"/><rect x="0" y="116.15" width="116.15" height="116.15" fill="#1e44e2"/><path d="M 0 116.15 A 116.15 116.15 0 0 1 116.15 232.3 L 0 232.3L0 116.15" fill="#a99abf"/><rect x="116.15384615384616" y="116.15384615384616" width="116.15384615384616" height="116.15384615384616" fill="#ffffff"/><rect x="116.15" y="116.15" width="58.08" height="58.08" fill="#d9d2e2"/><path d="M 116.15 174.23000000000002 A 58.08 58.08 0 0 0 174.23000000000002 116.15 L 116.15 116.15L116.15 174.23000000000002" fill="#aebcf5"/><rect x="174.23" y="116.15" width="58.08" height="58.08" fill="#9c8bb6"/><path d="M 174.23 174.23000000000002 A 58.08 58.08 0 0 1  232.31 116.15 L 232.31 174.23000000000002L174.23 174.23000000000002" fill="#a696bd"/><rect x="116.15" y="174.23" width="58.08" height="58.08" fill="#2147e2"/><path d="M 116.15 174.23 A 58.08 58.08 0 0 0 174.23000000000002 232.31 L 174.23000000000002 174.23L116.15 174.23" fill="#90a3f1"/><rect x="174.23" y="174.23" width="58.08" height="58.08" fill="#d2cbde"/><path d="M 174.23 232.31 A 58.08 58.08 0 0 1  232.31 174.23 L 174.23 232.31 A 58.08 58.08 0 0 0 232.31 174.23" fill="#4c6be8"/><rect x="232.31" y="116.15" width="116.15" height="116.15" fill="#ad9ec2"/><path d="M 232.31 232.3 A 116.15 116.15 0 0 1  348.46000000000004 116.15 L 348.46000000000004 232.3L232.31 232.3" fill="#b8abca"/><rect x="348.46153846153845" y="116.15384615384616" width="116.15384615384616" height="116.15384615384616" fill="#ffffff"/><rect x="348.46" y="116.15" width="58.08" height="58.08" fill="#aa9ac0"/><path d="M 348.46 116.15 A 58.08 58.08 0 0 1  406.53999999999996 174.23000000000002 L 348.46 116.15 A 58.08 58.08 0 0 0 406.53999999999996 174.23000000000002" fill="#fcfbfd"/><rect x="406.54" y="116.15" width="58.08" height="58.08" fill="#9cadf2"/><path d="M 406.54 116.15 A 58.08 58.08 0 0 0 464.62 174.23000000000002 L 464.62 116.15L406.54 116.15" fill="#cbd3f8"/><rect x="348.46" y="174.23" width="58.08" height="58.08" fill="#afbdf5"/><path d="M 348.46 174.23 A 58.08 58.08 0 0 1 406.53999999999996 232.31 L 348.46 232.31L348.46 174.23" fill="#1940e1"/><rect x="406.54" y="174.23" width="58.08" height="58.08" fill="#3f5fe6"/><path d="M 406.54 174.23 A 58.08 58.08 0 0 1 464.62 232.31 L 406.54 232.31L406.54 174.23" fill="#c8bed6"/><rect x="464.61538461538464" y="116.15384615384616" width="116.15384615384616" height="116.15384615384616" fill="#ffffff"/><rect x="464.62" y="116.15" width="58.08" height="58.08" fill="#a999bf"/><path d="M 464.62 174.23000000000002 A 58.08 58.08 0 0 1  522.7 116.15 L 522.7 174.23000000000002L464.62 174.23000000000002" fill="#f2eff5"/><rect x="522.69" y="116.15" width="58.08" height="58.08" fill="#a3b3f3"/><path d="M 522.69 174.23000000000002 A 58.08 58.08 0 0 1  580.7700000000001 116.15 L 522.69 174.23000000000002 A 58.08 58.08 0 0 0 580.7700000000001 116.15" fill="#ebe7f0"/><rect x="464.62" y="174.23" width="58.08" height="58.08" fill="#e0dbe8"/><path d="M 464.62 232.31 A 58.08 58.08 0 0 1  522.7 174.23 L 522.7 232.31L464.62 232.31" fill="#4867e7"/><rect x="522.69" y="174.23" width="58.08" height="58.08" fill="#90a3f1"/><path d="M 522.69 174.23 A 58.08 58.08 0 0 1  580.7700000000001 232.31 L 522.69 174.23 A 58.08 58.08 0 0 0 580.7700000000001 232.31" fill="#fcfbfd"/><rect x="580.77" y="116.15" width="116.15" height="116.15" fill="#a899bf"/><path d="M 580.77 116.15 A 116.15 116.15 0 0 0 696.92 232.3 L 696.92 116.15L580.77 116.15" fill="#e9e5ee"/><rect x="696.9230769230769" y="116.15384615384616" width="116.15384615384616" height="116.15384615384616" fill="#ffffff"/><rect x="696.92" y="116.15" width="58.08" height="58.08" fill="#2e52e4"/><path d="M 696.92 116.15 A 58.08 58.08 0 0 1 755 174.23000000000002 L 696.92 174.23000000000002L696.92 116.15" fill="#bdc9f6"/><rect x="755" y="116.15" width="58.08" height="58.08" fill="#b9c5f6"/><path d="M 755 116.15 A 58.08 58.08 0 0 1 813.08 174.23000000000002 L 755 174.23000000000002L755 116.15" fill="#9a89b4"/><rect x="696.92" y="174.23" width="58.08" height="58.08" fill="#a797bd"/><path d="M 696.92 232.31 A 58.08 58.08 0 0 0 755 174.23 L 696.92 174.23L696.92 232.31" fill="#a191b9"/><rect x="755" y="174.23" width="58.08" height="58.08" fill="#acbaf4"/><path d="M 755 174.23 A 58.08 58.08 0 0 1 813.08 232.31 L 755 232.31L755 174.23" fill="#aebcf5"/><rect x="813.0769230769231" y="116.15384615384616" width="116.15384615384616" height="116.15384615384616" fill="#ffffff"/><rect x="813.08" y="116.15" width="58.08" height="58.08" fill="#fafafc"/><path d="M 813.08 116.15 A 58.08 58.08 0 0 1  871.1600000000001 174.23000000000002 L 813.08 116.15 A 58.08 58.08 0 0 0 871.1600000000001 174.23000000000002" fill="#3456e5"/><rect x="871.15" y="116.15" width="58.08" height="58.08" fill="#4968e7"/><path d="M 871.15 116.15 A 58.08 58.08 0 0 1 929.23 174.23000000000002 L 871.15 174.23000000000002L871.15 116.15" fill="#e3ddea"/><rect x="813.08" y="174.23" width="58.08" height="58.08" fill="#eae6ef"/><path d="M 813.08 232.31 A 58.08 58.08 0 0 1  871.1600000000001 174.23 L 813.08 232.31 A 58.08 58.08 0 0 0 871.1600000000001 174.23" fill="#beb2cf"/><rect x="871.15" y="174.23" width="58.08" height="58.08" fill="#8a9ef0"/><path d="M 871.15 232.31 A 58.08 58.08 0 0 1  929.23 174.23 L 929.23 232.31L871.15 232.31" fill="#fcfcfd"/><rect x="929.2307692307693" y="116.15384615384616" width="116.15384615384616" height="116.15384615384616" fill="#ffffff"/><rect x="929.23" y="116.15" width="58.08" height="58.08" fill="#a08fb8"/><path d="M 929.23 116.15 A 58.08 58.08 0 0 1  987.3100000000001 174.23000000000002 L 929.23 116.15 A 58.08 58.08 0 0 0 987.3100000000001 174.23000000000002" fill="#9fb0f3"/><rect x="987.31" y="116.15" width="58.08" height="58.08" fill="#5d78ea"/><path d="M 987.31 116.15 A 58.08 58.08 0 0 1  1045.3899999999999 174.23000000000002 L 987.31 116.15 A 58.08 58.08 0 0 0 1045.3899999999999 174.23000000000002" fill="#f3f5fd"/><rect x="929.23" y="174.23" width="58.08" height="58.08" fill="#748ced"/><path d="M 929.23 232.31 A 58.08 58.08 0 0 0 987.3100000000001 174.23 L 929.23 174.23L929.23 232.31" fill="#d6cee0"/><rect x="987.31" y="174.23" width="58.08" height="58.08" fill="#feffff"/><path d="M 987.31 232.31 A 58.08 58.08 0 0 1  1045.3899999999999 174.23 L 987.31 232.31 A 58.08 58.08 0 0 0 1045.3899999999999 174.23" fill="#fdfdff"/><rect x="1045.3846153846155" y="116.15384615384616" width="116.15384615384616" height="116.15384615384616" fill="#ffffff"/><rect x="1045.38" y="116.15" width="58.08" height="58.08" fill="#506ee8"/><path d="M 1045.38 174.23000000000002 A 58.08 58.08 0 0 1  1103.46 116.15 L 1103.46 174.23000000000002L1045.38 174.23000000000002" fill="#e1dce9"/><rect x="1103.46" y="116.15" width="58.08" height="58.08" fill="#c2ccf7"/><path d="M 1103.46 174.23000000000002 A 58.08 58.08 0 0 1  1161.54 116.15 L 1103.46 174.23000000000002 A 58.08 58.08 0 0 0 1161.54 116.15" fill="#b3a6c7"/><rect x="1045.38" y="174.23" width="58.08" height="58.08" fill="#fbfafc"/><path d="M 1045.38 174.23 A 58.08 58.08 0 0 1  1103.46 232.31 L 1045.38 174.23 A 58.08 58.08 0 0 0 1103.46 232.31" fill="#5571e9"/><rect x="1103.46" y="174.23" width="58.08" height="58.08" fill="#d8defa"/><path d="M 1103.46 174.23 A 58.08 58.08 0 0 1  1161.54 232.31 L 1103.46 174.23 A 58.08 58.08 0 0 0 1161.54 232.31" fill="#f4f6fe"/><rect x="1161.5384615384617" y="116.15384615384616" width="116.15384615384616" height="116.15384615384616" fill="#ffffff"/><rect x="1161.54" y="116.15" width="58.08" height="58.08" fill="#6982eb"/><path d="M 1161.54 174.23000000000002 A 58.08 58.08 0 0 1  1219.62 116.15 L 1219.62 174.23000000000002L1161.54 174.23000000000002" fill="#bdb2ce"/><rect x="1219.62" y="116.15" width="58.08" height="58.08" fill="#97a9f2"/><path d="M 1219.62 116.15 A 58.08 58.08 0 0 1 1277.6999999999998 174.23000000000002 L 1219.62 174.23000000000002L1219.62 116.15" fill="#e9e5ef"/><rect x="1161.54" y="174.23" width="58.08" height="58.08" fill="#a898be"/><path d="M 1161.54 174.23 A 58.08 58.08 0 0 0 1219.62 232.31 L 1219.62 174.23L1161.54 174.23" fill="#eeebf2"/><rect x="1219.62" y="174.23" width="58.08" height="58.08" fill="#f5f4f8"/><path d="M 1219.62 232.31 A 58.08 58.08 0 0 0 1277.6999999999998 174.23 L 1219.62 174.23L1219.62 232.31" fill="#9d8cb6"/><rect x="1277.6923076923078" y="116.15384615384616" width="116.15384615384616" height="116.15384615384616" fill="#ffffff"/><rect x="1277.69" y="116.15" width="58.08" height="58.08" fill="#a2b2f3"/><path d="M 1277.69 116.15 A 58.08 58.08 0 0 0 1335.77 174.23000000000002 L 1335.77 116.15L1277.69 116.15" fill="#f4f2f7"/><rect x="1335.77" y="116.15" width="58.08" height="58.08" fill="#99aaf2"/><path d="M 1335.77 116.15 A 58.08 58.08 0 0 0 1393.85 174.23000000000002 L 1393.85 116.15L1335.77 116.15" fill="#8095ee"/><rect x="1277.69" y="174.23" width="58.08" height="58.08" fill="#9f8db7"/><path d="M 1277.69 232.31 A 58.08 58.08 0 0 1  1335.77 174.23 L 1335.77 232.31L1277.69 232.31" fill="#aea0c3"/><rect x="1335.77" y="174.23" width="58.08" height="58.08" fill="#5d79ea"/><path d="M 1335.77 174.23 A 58.08 58.08 0 0 0 1393.85 232.31 L 1393.85 174.23L1335.77 174.23" fill="#f2eff5"/><rect x="1393.8461538461538" y="116.15384615384616" width="116.15384615384616" height="116.15384615384616" fill="#ffffff"/><rect x="1393.85" y="116.15" width="58.08" height="58.08" fill="#dbe1fa"/><path d="M 1393.85 174.23000000000002 A 58.08 58.08 0 0 1  1451.9299999999998 116.15 L 1393.85 174.23000000000002 A 58.08 58.08 0 0 0 1451.9299999999998 116.15" fill="#dde2fb"/><rect x="1451.92" y="116.15" width="58.08" height="58.08" fill="#c1b6d1"/><path d="M 1451.92 116.15 A 58.08 58.08 0 0 0 1510 174.23000000000002 L 1510 116.15L1451.92 116.15" fill="#dad3e3"/><rect x="1393.85" y="174.23" width="58.08" height="58.08" fill="#edeaf2"/><path d="M 1393.85 232.31 A 58.08 58.08 0 0 1  1451.9299999999998 174.23 L 1451.9299999999998 232.31L1393.85 232.31" fill="#fdfdfe"/><rect x="1451.92" y="174.23" width="58.08" height="58.08" fill="#3356e5"/><path d="M 1451.92 232.31 A 58.08 58.08 0 0 1  1510 174.23 L 1510 232.31L1451.92 232.31" fill="#5e79ea"/><rect x="0" y="232.31" width="116.15" height="116.15" fill="#8398ef"/><path d="M 0 232.31 A 116.15 116.15 0 0 1  116.15 348.46000000000004 L 0 232.31 A 116.15 116.15 0 0 0 116.15 348.46000000000004" fill="#baaecc"/><rect x="116.15384615384616" y="232.30769230769232" width="116.15384615384616" height="116.15384615384616" fill="#ffffff"/><rect x="116.15" y="232.31" width="58.08" height="58.08" fill="#8197ef"/><path d="M 116.15 290.39 A 58.08 58.08 0 0 1  174.23000000000002 232.31 L 116.15 290.39 A 58.08 58.08 0 0 0 174.23000000000002 232.31" fill="#abb9f4"/><rect x="174.23" y="232.31" width="58.08" height="58.08" fill="#7088ec"/><path d="M 174.23 232.31 A 58.08 58.08 0 0 0 232.31 290.39 L 232.31 232.31L174.23 232.31" fill="#4e6ce8"/><rect x="116.15" y="290.38" width="58.08" height="58.08" fill="#ece9f1"/><path d="M 116.15 348.46 A 58.08 58.08 0 0 0 174.23000000000002 290.38 L 116.15 290.38L116.15 348.46" fill="#eceffd"/><rect x="174.23" y="290.38" width="58.08" height="58.08" fill="#4e6ce8"/><path d="M 174.23 348.46 A 58.08 58.08 0 0 1  232.31 290.38 L 174.23 348.46 A 58.08 58.08 0 0 0 232.31 290.38" fill="#3355e4"/><rect x="232.30769230769232" y="232.30769230769232" width="116.15384615384616" height="116.15384615384616" fill="#ffffff"/><rect x="232.31" y="232.31" width="58.08" height="58.08" fill="#738aed"/><path d="M 232.31 290.39 A 58.08 58.08 0 0 1  290.39 232.31 L 290.39 290.39L232.31 290.39" fill="#fdfeff"/><rect x="290.38" y="232.31" width="58.08" height="58.08" fill="#fefeff"/><path d="M 290.38 290.39 A 58.08 58.08 0 0 1  348.46 232.31 L 290.38 290.39 A 58.08 58.08 0 0 0 348.46 232.31" fill="#dfd9e7"/><rect x="232.31" y="290.38" width="58.08" height="58.08" fill="#2c4fe4"/><path d="M 232.31 290.38 A 58.08 58.08 0 0 0 290.39 348.46 L 290.39 290.38L232.31 290.38" fill="#9bacf2"/><rect x="290.38" y="290.38" width="58.08" height="58.08" fill="#bbaecc"/><path d="M 290.38 290.38 A 58.08 58.08 0 0 1  348.46 348.46 L 290.38 290.38 A 58.08 58.08 0 0 0 348.46 348.46" fill="#5b77ea"/><rect x="348.46153846153845" y="232.30769230769232" width="116.15384615384616" height="116.15384615384616" fill="#ffffff"/><rect x="348.46" y="232.31" width="58.08" height="58.08" fill="#d5dcfa"/><path d="M 348.46 232.31 A 58.08 58.08 0 0 0 406.53999999999996 290.39 L 406.53999999999996 232.31L348.46 232.31" fill="#cdc5da"/><rect x="406.54" y="232.31" width="58.08" height="58.08" fill="#f9fafe"/><path d="M 406.54 290.39 A 58.08 58.08 0 0 1  464.62 232.31 L 464.62 290.39L406.54 290.39" fill="#bcb0cd"/><rect x="348.46" y="290.38" width="58.08" height="58.08" fill="#b2a4c6"/><path d="M 348.46 290.38 A 58.08 58.08 0 0 0 406.53999999999996 348.46 L 406.53999999999996 290.38L348.46 290.38" fill="#e4e0eb"/><rect x="406.54" y="290.38" width="58.08" height="58.08" fill="#859aef"/><path d="M 406.54 348.46 A 58.08 58.08 0 0 1  464.62 290.38 L 406.54 348.46 A 58.08 58.08 0 0 0 464.62 290.38" fill="#c3b8d2"/><rect x="464.61538461538464" y="232.30769230769232" width="116.15384615384616" height="116.15384615384616" fill="#ffffff"/><rect x="464.62" y="232.31" width="58.08" height="58.08" fill="#d7cfe1"/><path d="M 464.62 290.39 A 58.08 58.08 0 0 1  522.7 232.31 L 464.62 290.39 A 58.08 58.08 0 0 0 522.7 232.31" fill="#bbafcc"/><rect x="522.69" y="232.31" width="58.08" height="58.08" fill="#92a4f1"/><path d="M 522.69 290.39 A 58.08 58.08 0 0 1  580.7700000000001 232.31 L 522.69 290.39 A 58.08 58.08 0 0 0 580.7700000000001 232.31" fill="#4968e7"/><rect x="464.62" y="290.38" width="58.08" height="58.08" fill="#526fe8"/><path d="M 464.62 348.46 A 58.08 58.08 0 0 0 522.7 290.38 L 464.62 290.38L464.62 348.46" fill="#cec5db"/><rect x="522.69" y="290.38" width="58.08" height="58.08" fill="#efecf3"/><path d="M 522.69 348.46 A 58.08 58.08 0 0 1  580.7700000000001 290.38 L 580.7700000000001 348.46L522.69 348.46" fill="#8ca0f0"/><rect x="580.77" y="232.31" width="116.15" height="116.15" fill="#e3dfeb"/><path d="M 580.77 348.46000000000004 A 116.15 116.15 0 0 1  696.92 232.31 L 696.92 348.46000000000004L580.77 348.46000000000004" fill="#e4dfeb"/><rect x="696.9230769230769" y="232.30769230769232" width="116.15384615384616" height="116.15384615384616" fill="#ffffff"/><rect x="696.92" y="232.31" width="58.08" height="58.08" fill="#657feb"/><path d="M 696.92 290.39 A 58.08 58.08 0 0 1  755 232.31 L 696.92 290.39 A 58.08 58.08 0 0 0 755 232.31" fill="#f0f3fd"/><rect x="755" y="232.31" width="58.08" height="58.08" fill="#b8abca"/><path d="M 755 290.39 A 58.08 58.08 0 0 1  813.08 232.31 L 755 290.39 A 58.08 58.08 0 0 0 813.08 232.31" fill="#ad9fc2"/><rect x="696.92" y="290.38" width="58.08" height="58.08" fill="#95a7f1"/><path d="M 696.92 348.46 A 58.08 58.08 0 0 0 755 290.38 L 696.92 290.38L696.92 348.46" fill="#c5bbd4"/><rect x="755" y="290.38" width="58.08" height="58.08" fill="#f5f7fe"/><path d="M 755 348.46 A 58.08 58.08 0 0 0 813.08 290.38 L 755 290.38L755 348.46" fill="#e0dae8"/><rect x="813.08" y="232.31" width="116.15" height="116.15" fill="#a595bc"/><path d="M 813.08 348.46000000000004 A 116.15 116.15 0 0 1  929.23 232.31 L 813.08 348.46000000000004 A 116.15 116.15 0 0 0 929.23 232.31" fill="#bcc7f6"/><rect x="929.23" y="232.31" width="116.15" height="116.15" fill="#a393bb"/><path d="M 929.23 348.46000000000004 A 116.15 116.15 0 0 0 1045.38 232.31 L 929.23 232.31L929.23 348.46000000000004" fill="#879bef"/><rect x="1045.3846153846155" y="232.30769230769232" width="116.15384615384616" height="116.15384615384616" fill="#ffffff"/><rect x="1045.38" y="232.31" width="58.08" height="58.08" fill="#e4e9fc"/><path d="M 1045.38 232.31 A 58.08 58.08 0 0 0 1103.46 290.39 L 1103.46 232.31L1045.38 232.31" fill="#6d85ec"/><rect x="1103.46" y="232.31" width="58.08" height="58.08" fill="#f0eef4"/><path d="M 1103.46 232.31 A 58.08 58.08 0 0 0 1161.54 290.39 L 1161.54 232.31L1103.46 232.31" fill="#9faff3"/><rect x="1045.38" y="290.38" width="58.08" height="58.08" fill="#e5e1ec"/><path d="M 1045.38 290.38 A 58.08 58.08 0 0 1  1103.46 348.46 L 1045.38 290.38 A 58.08 58.08 0 0 0 1103.46 348.46" fill="#acbaf4"/><rect x="1103.46" y="290.38" width="58.08" height="58.08" fill="#d7d0e1"/><path d="M 1103.46 290.38 A 58.08 58.08 0 0 0 1161.54 348.46 L 1161.54 290.38L1103.46 290.38" fill="#cbd4f8"/><rect x="1161.5384615384617" y="232.30769230769232" width="116.15384615384616" height="116.15384615384616" fill="#ffffff"/><rect x="1161.54" y="232.31" width="58.08" height="58.08" fill="#f0eef4"/><path d="M 1161.54 290.39 A 58.08 58.08 0 0 0 1219.62 232.31 L 1161.54 232.31L1161.54 290.39" fill="#d5cddf"/><rect x="1219.62" y="232.31" width="58.08" height="58.08" fill="#a292ba"/><path d="M 1219.62 232.31 A 58.08 58.08 0 0 1 1277.6999999999998 290.39 L 1219.62 290.39L1219.62 232.31" fill="#a393bb"/><rect x="1161.54" y="290.38" width="58.08" height="58.08" fill="#2a4ee3"/><path d="M 1161.54 290.38 A 58.08 58.08 0 0 1 1219.62 348.46 L 1161.54 348.46L1161.54 290.38" fill="#c9d2f8"/><rect x="1219.62" y="290.38" width="58.08" height="58.08" fill="#afa0c3"/><path d="M 1219.62 348.46 A 58.08 58.08 0 0 0 1277.6999999999998 290.38 L 1219.62 290.38L1219.62 348.46" fill="#eaedfc"/><rect x="1277.69" y="232.31" width="116.15" height="116.15" fill="#ac9ec2"/><path d="M 1277.69 232.31 A 116.15 116.15 0 0 1  1393.8400000000001 348.46000000000004 L 1277.69 232.31 A 116.15 116.15 0 0 0 1393.8400000000001 348.46000000000004" fill="#1940e1"/><rect x="1393.85" y="232.31" width="116.15" height="116.15" fill="#f6f7fe"/><path d="M 1393.85 232.31 A 116.15 116.15 0 0 0 1510 348.46000000000004 L 1510 232.31L1393.85 232.31" fill="#c3b9d3"/><rect x="0" y="348.46" width="116.15" height="116.15" fill="#b8abca"/><path d="M 0 464.61 A 116.15 116.15 0 0 1  116.15 348.46 L 116.15 464.61L0 464.61" fill="#dad3e4"/><rect x="116.15384615384616" y="348.46153846153845" width="116.15384615384616" height="116.15384615384616" fill="#ffffff"/><rect x="116.15" y="348.46" width="58.08" height="58.08" fill="#f8f9fe"/><path d="M 116.15 348.46 A 58.08 58.08 0 0 1  174.23000000000002 406.53999999999996 L 116.15 348.46 A 58.08 58.08 0 0 0 174.23000000000002 406.53999999999996" fill="#f5f6fe"/><rect x="174.23" y="348.46" width="58.08" height="58.08" fill="#93a5f1"/><path d="M 174.23 348.46 A 58.08 58.08 0 0 1  232.31 406.53999999999996 L 174.23 348.46 A 58.08 58.08 0 0 0 232.31 406.53999999999996" fill="#3e5fe6"/><rect x="116.15" y="406.54" width="58.08" height="58.08" fill="#c2b7d2"/><path d="M 116.15 406.54 A 58.08 58.08 0 0 1 174.23000000000002 464.62 L 116.15 464.62L116.15 406.54" fill="#c5bbd4"/><rect x="174.23" y="406.54" width="58.08" height="58.08" fill="#b6a9c9"/><path d="M 174.23 464.62 A 58.08 58.08 0 0 1  232.31 406.54 L 174.23 464.62 A 58.08 58.08 0 0 0 232.31 406.54" fill="#cfd7f9"/><rect x="232.31" y="348.46" width="116.15" height="116.15" fill="#6882eb"/><path d="M 232.31 464.61 A 116.15 116.15 0 0 1  348.46000000000004 348.46 L 348.46000000000004 464.61L232.31 464.61" fill="#d4cddf"/><rect x="348.46153846153845" y="348.46153846153845" width="116.15384615384616" height="116.15384615384616" fill="#ffffff"/><rect x="348.46" y="348.46" width="58.08" height="58.08" fill="#efecf3"/><path d="M 348.46 406.53999999999996 A 58.08 58.08 0 0 1  406.53999999999996 348.46 L 406.53999999999996 406.53999999999996L348.46 406.53999999999996" fill="#f4f2f7"/><rect x="406.54" y="348.46" width="58.08" height="58.08" fill="#eeebf2"/><path d="M 406.54 348.46 A 58.08 58.08 0 0 0 464.62 406.53999999999996 L 464.62 348.46L406.54 348.46" fill="#1f45e2"/><rect x="348.46" y="406.54" width="58.08" height="58.08" fill="#e7e3ed"/><path d="M 348.46 464.62 A 58.08 58.08 0 0 1  406.53999999999996 406.54 L 348.46 464.62 A 58.08 58.08 0 0 0 406.53999999999996 406.54" fill="#284ce3"/><rect x="406.54" y="406.54" width="58.08" height="58.08" fill="#c4b9d3"/><path d="M 406.54 464.62 A 58.08 58.08 0 0 1  464.62 406.54 L 406.54 464.62 A 58.08 58.08 0 0 0 464.62 406.54" fill="#93a5f1"/><rect x="464.62" y="348.46" width="116.15" height="116.15" fill="#3255e4"/><path d="M 464.62 464.61 A 116.15 116.15 0 0 0 580.77 348.46 L 464.62 348.46L464.62 464.61" fill="#9f8eb8"/><rect x="580.77" y="348.46" width="116.15" height="116.15" fill="#9f8eb8"/><path d="M 580.77 348.46 A 116.15 116.15 0 0 0 696.92 464.61 L 696.92 348.46L580.77 348.46" fill="#1940e1"/><rect x="696.9230769230769" y="348.46153846153845" width="116.15384615384616" height="116.15384615384616" fill="#ffffff"/><rect x="696.92" y="348.46" width="58.08" height="58.08" fill="#aa9bc0"/><path d="M 696.92 348.46 A 58.08 58.08 0 0 0 755 406.53999999999996 L 755 348.46L696.92 348.46" fill="#ccc3d9"/><rect x="755" y="348.46" width="58.08" height="58.08" fill="#d7defa"/><path d="M 755 348.46 A 58.08 58.08 0 0 0 813.08 406.53999999999996 L 813.08 348.46L755 348.46" fill="#c8d1f8"/><rect x="696.92" y="406.54" width="58.08" height="58.08" fill="#99aaf2"/><path d="M 696.92 406.54 A 58.08 58.08 0 0 1 755 464.62 L 696.92 464.62L696.92 406.54" fill="#b7c3f6"/><rect x="755" y="406.54" width="58.08" height="58.08" fill="#f5f3f8"/><path d="M 755 464.62 A 58.08 58.08 0 0 0 813.08 406.54 L 755 406.54L755 464.62" fill="#a08fb8"/><rect x="813.08" y="348.46" width="116.15" height="116.15" fill="#cad3f8"/><path d="M 813.08 464.61 A 116.15 116.15 0 0 0 929.23 348.46 L 813.08 348.46L813.08 464.61" fill="#b2a5c6"/><rect x="929.2307692307693" y="348.46153846153845" width="116.15384615384616" height="116.15384615384616" fill="#ffffff"/><rect x="929.23" y="348.46" width="58.08" height="58.08" fill="#aa9bc0"/><path d="M 929.23 348.46 A 58.08 58.08 0 0 1  987.3100000000001 406.53999999999996 L 929.23 348.46 A 58.08 58.08 0 0 0 987.3100000000001 406.53999999999996" fill="#ccc3d9"/><rect x="987.31" y="348.46" width="58.08" height="58.08" fill="#b7aaca"/><path d="M 987.31 348.46 A 58.08 58.08 0 0 0 1045.3899999999999 406.53999999999996 L 1045.3899999999999 348.46L987.31 348.46" fill="#8196ef"/><rect x="929.23" y="406.54" width="58.08" height="58.08" fill="#8599ef"/><path d="M 929.23 406.54 A 58.08 58.08 0 0 1 987.3100000000001 464.62 L 929.23 464.62L929.23 406.54" fill="#ccd5f8"/><rect x="987.31" y="406.54" width="58.08" height="58.08" fill="#cfc6db"/><path d="M 987.31 406.54 A 58.08 58.08 0 0 1 1045.3899999999999 464.62 L 987.31 464.62L987.31 406.54" fill="#c7d1f8"/><rect x="1045.3846153846155" y="348.46153846153845" width="116.15384615384616" height="116.15384615384616" fill="#ffffff"/><rect x="1045.38" y="348.46" width="58.08" height="58.08" fill="#e7e2ed"/><path d="M 1045.38 406.53999999999996 A 58.08 58.08 0 0 1  1103.46 348.46 L 1045.38 406.53999999999996 A 58.08 58.08 0 0 0 1103.46 348.46" fill="#a393bb"/><rect x="1103.46" y="348.46" width="58.08" height="58.08" fill="#b0a2c4"/><path d="M 1103.46 406.53999999999996 A 58.08 58.08 0 0 0 1161.54 348.46 L 1103.46 348.46L1103.46 406.53999999999996" fill="#617cea"/><rect x="1045.38" y="406.54" width="58.08" height="58.08" fill="#b1a3c5"/><path d="M 1045.38 406.54 A 58.08 58.08 0 0 1 1103.46 464.62 L 1045.38 464.62L1045.38 406.54" fill="#90a3f1"/><rect x="1103.46" y="406.54" width="58.08" height="58.08" fill="#3153e4"/><path d="M 1103.46 406.54 A 58.08 58.08 0 0 1  1161.54 464.62 L 1103.46 406.54 A 58.08 58.08 0 0 0 1161.54 464.62" fill="#abb9f4"/><rect x="1161.54" y="348.46" width="116.15" height="116.15" fill="#1c42e1"/><path d="M 1161.54 348.46 A 116.15 116.15 0 0 1 1277.69 464.61 L 1161.54 464.61L1161.54 348.46" fill="#d7ddfa"/><rect x="1277.6923076923078" y="348.46153846153845" width="116.15384615384616" height="116.15384615384616" fill="#ffffff"/><rect x="1277.69" y="348.46" width="58.08" height="58.08" fill="#f1eff5"/><path d="M 1277.69 348.46 A 58.08 58.08 0 0 1  1335.77 406.53999999999996 L 1277.69 348.46 A 58.08 58.08 0 0 0 1335.77 406.53999999999996" fill="#e9edfc"/><rect x="1335.77" y="348.46" width="58.08" height="58.08" fill="#bfb4d0"/><path d="M 1335.77 406.53999999999996 A 58.08 58.08 0 0 1  1393.85 348.46 L 1335.77 406.53999999999996 A 58.08 58.08 0 0 0 1393.85 348.46" fill="#f9f7fa"/><rect x="1277.69" y="406.54" width="58.08" height="58.08" fill="#bec9f7"/><path d="M 1277.69 406.54 A 58.08 58.08 0 0 1 1335.77 464.62 L 1277.69 464.62L1277.69 406.54" fill="#4c6ae8"/><rect x="1335.77" y="406.54" width="58.08" height="58.08" fill="#cac0d7"/><path d="M 1335.77 406.54 A 58.08 58.08 0 0 1 1393.85 464.62 L 1335.77 464.62L1335.77 406.54" fill="#e5e0eb"/><rect x="1393.8461538461538" y="348.46153846153845" width="116.15384615384616" height="116.15384615384616" fill="#ffffff"/><rect x="1393.85" y="348.46" width="58.08" height="58.08" fill="#6882eb"/><path d="M 1393.85 406.53999999999996 A 58.08 58.08 0 0 0 1451.9299999999998 348.46 L 1393.85 348.46L1393.85 406.53999999999996" fill="#93a5f1"/><rect x="1451.92" y="348.46" width="58.08" height="58.08" fill="#6e87ec"/><path d="M 1451.92 348.46 A 58.08 58.08 0 0 1 1510 406.53999999999996 L 1451.92 406.53999999999996L1451.92 348.46" fill="#4665e7"/><rect x="1393.85" y="406.54" width="58.08" height="58.08" fill="#fdfcfd"/><path d="M 1393.85 406.54 A 58.08 58.08 0 0 0 1451.9299999999998 464.62 L 1451.9299999999998 406.54L1393.85 406.54" fill="#d9d3e3"/><rect x="1451.92" y="406.54" width="58.08" height="58.08" fill="#fdfcfd"/><path d="M 1451.92 406.54 A 58.08 58.08 0 0 0 1510 464.62 L 1510 406.54L1451.92 406.54" fill="#6a83ec"/><rect x="0" y="464.61538461538464" width="116.15384615384616" height="116.15384615384616" fill="#ffffff"/><rect x="0" y="464.62" width="58.08" height="58.08" fill="#e8e4ee"/><path d="M 0 522.7 A 58.08 58.08 0 0 1  58.08 464.62 L 0 522.7 A 58.08 58.08 0 0 0 58.08 464.62" fill="#a190b9"/><rect x="58.08" y="464.62" width="58.08" height="58.08" fill="#c8bed6"/><path d="M 58.08 464.62 A 58.08 58.08 0 0 1 116.16 522.7 L 58.08 522.7L58.08 464.62" fill="#f1eef5"/><rect x="0" y="522.69" width="58.08" height="58.08" fill="#c0b4d0"/><path d="M 0 522.69 A 58.08 58.08 0 0 1  58.08 580.7700000000001 L 0 522.69 A 58.08 58.08 0 0 0 58.08 580.7700000000001" fill="#c4bad3"/><rect x="58.08" y="522.69" width="58.08" height="58.08" fill="#a99abf"/><path d="M 58.08 580.7700000000001 A 58.08 58.08 0 0 0 116.16 522.69 L 58.08 522.69L58.08 580.7700000000001" fill="#94a6f1"/><rect x="116.15" y="464.62" width="116.15" height="116.15" fill="#e1dce9"/><path d="M 116.15 580.77 A 116.15 116.15 0 0 1  232.3 464.62 L 232.3 580.77L116.15 580.77" fill="#6c85ec"/><rect x="232.31" y="464.62" width="116.15" height="116.15" fill="#c2b7d2"/><path d="M 232.31 464.62 A 116.15 116.15 0 0 1  348.46000000000004 580.77 L 232.31 464.62 A 116.15 116.15 0 0 0 348.46000000000004 580.77" fill="#9f8db7"/><rect x="348.46" y="464.62" width="116.15" height="116.15" fill="#f4f2f7"/><path d="M 348.46 580.77 A 116.15 116.15 0 0 1  464.61 464.62 L 464.61 580.77L348.46 580.77" fill="#a899bf"/><rect x="464.61538461538464" y="464.61538461538464" width="116.15384615384616" height="116.15384615384616" fill="#ffffff"/><rect x="464.62" y="464.62" width="58.08" height="58.08" fill="#b3a5c6"/><path d="M 464.62 522.7 A 58.08 58.08 0 0 1  522.7 464.62 L 522.7 522.7L464.62 522.7" fill="#5774e9"/><rect x="522.69" y="464.62" width="58.08" height="58.08" fill="#f6f4f8"/><path d="M 522.69 464.62 A 58.08 58.08 0 0 1  580.7700000000001 522.7 L 522.69 464.62 A 58.08 58.08 0 0 0 580.7700000000001 522.7" fill="#d4cddf"/><rect x="464.62" y="522.69" width="58.08" height="58.08" fill="#fcfcfd"/><path d="M 464.62 522.69 A 58.08 58.08 0 0 1  522.7 580.7700000000001 L 464.62 522.69 A 58.08 58.08 0 0 0 522.7 580.7700000000001" fill="#e9e5ef"/><rect x="522.69" y="522.69" width="58.08" height="58.08" fill="#e0e5fb"/><path d="M 522.69 580.7700000000001 A 58.08 58.08 0 0 1  580.7700000000001 522.69 L 580.7700000000001 580.7700000000001L522.69 580.7700000000001" fill="#516fe8"/><rect x="580.7692307692308" y="464.61538461538464" width="116.15384615384616" height="116.15384615384616" fill="#ffffff"/><rect x="580.77" y="464.62" width="58.08" height="58.08" fill="#4665e7"/><path d="M 580.77 464.62 A 58.08 58.08 0 0 0 638.85 522.7 L 638.85 464.62L580.77 464.62" fill="#adbaf4"/><rect x="638.85" y="464.62" width="58.08" height="58.08" fill="#b3c0f5"/><path d="M 638.85 522.7 A 58.08 58.08 0 0 1  696.9300000000001 464.62 L 638.85 522.7 A 58.08 58.08 0 0 0 696.9300000000001 464.62" fill="#3859e5"/><rect x="580.77" y="522.69" width="58.08" height="58.08" fill="#a190b9"/><path d="M 580.77 580.7700000000001 A 58.08 58.08 0 0 0 638.85 522.69 L 580.77 522.69L580.77 580.7700000000001" fill="#1f45e2"/><rect x="638.85" y="522.69" width="58.08" height="58.08" fill="#c5bbd4"/><path d="M 638.85 522.69 A 58.08 58.08 0 0 1 696.9300000000001 580.7700000000001 L 638.85 580.7700000000001L638.85 522.69" fill="#d9e0fa"/><rect x="696.9230769230769" y="464.61538461538464" width="116.15384615384616" height="116.15384615384616" fill="#ffffff"/><rect x="696.92" y="464.62" width="58.08" height="58.08" fill="#d7d0e2"/><path d="M 696.92 464.62 A 58.08 58.08 0 0 1 755 522.7 L 696.92 522.7L696.92 464.62" fill="#5673e9"/><rect x="755" y="464.62" width="58.08" height="58.08" fill="#d4ccdf"/><path d="M 755 464.62 A 58.08 58.08 0 0 1 813.08 522.7 L 755 522.7L755 464.62" fill="#e4e0eb"/><rect x="696.92" y="522.69" width="58.08" height="58.08" fill="#a08fb8"/><path d="M 696.92 522.69 A 58.08 58.08 0 0 0 755 580.7700000000001 L 755 522.69L696.92 522.69" fill="#b6a9c9"/><rect x="755" y="522.69" width="58.08" height="58.08" fill="#f9f8fb"/><path d="M 755 522.69 A 58.08 58.08 0 0 0 813.08 580.7700000000001 L 813.08 522.69L755 522.69" fill="#ab9cc0"/><rect x="813.08" y="464.62" width="116.15" height="116.15" fill="#cbd4f8"/><path d="M 813.08 464.62 A 116.15 116.15 0 0 1 929.23 580.77 L 813.08 580.77L813.08 464.62" fill="#ad9fc2"/><rect x="929.2307692307693" y="464.61538461538464" width="116.15384615384616" height="116.15384615384616" fill="#ffffff"/><rect x="929.23" y="464.62" width="58.08" height="58.08" fill="#889cef"/><path d="M 929.23 522.7 A 58.08 58.08 0 0 1  987.3100000000001 464.62 L 929.23 522.7 A 58.08 58.08 0 0 0 987.3100000000001 464.62" fill="#9aabf2"/><rect x="987.31" y="464.62" width="58.08" height="58.08" fill="#92a4f1"/><path d="M 987.31 522.7 A 58.08 58.08 0 0 1  1045.3899999999999 464.62 L 987.31 522.7 A 58.08 58.08 0 0 0 1045.3899999999999 464.62" fill="#e9e6ef"/><rect x="929.23" y="522.69" width="58.08" height="58.08" fill="#e9e5ee"/><path d="M 929.23 522.69 A 58.08 58.08 0 0 1 987.3100000000001 580.7700000000001 L 929.23 580.7700000000001L929.23 522.69" fill="#bfb4d0"/><rect x="987.31" y="522.69" width="58.08" height="58.08" fill="#6982ec"/><path d="M 987.31 522.69 A 58.08 58.08 0 0 1  1045.3899999999999 580.7700000000001 L 987.31 522.69 A 58.08 58.08 0 0 0 1045.3899999999999 580.7700000000001" fill="#edf0fd"/><rect x="1045.3846153846155" y="464.61538461538464" width="116.15384615384616" height="116.15384615384616" fill="#ffffff"/><rect x="1045.38" y="464.62" width="58.08" height="58.08" fill="#5d79ea"/><path d="M 1045.38 464.62 A 58.08 58.08 0 0 1 1103.46 522.7 L 1045.38 522.7L1045.38 464.62" fill="#778eed"/><rect x="1103.46" y="464.62" width="58.08" height="58.08" fill="#eae6ef"/><path d="M 1103.46 522.7 A 58.08 58.08 0 0 1  1161.54 464.62 L 1103.46 522.7 A 58.08 58.08 0 0 0 1161.54 464.62" fill="#b6a9c9"/><rect x="1045.38" y="522.69" width="58.08" height="58.08" fill="#b9adcb"/><path d="M 1045.38 522.69 A 58.08 58.08 0 0 1  1103.46 580.7700000000001 L 1045.38 522.69 A 58.08 58.08 0 0 0 1103.46 580.7700000000001" fill="#b4c1f5"/><rect x="1103.46" y="522.69" width="58.08" height="58.08" fill="#385ae5"/><path d="M 1103.46 522.69 A 58.08 58.08 0 0 1  1161.54 580.7700000000001 L 1103.46 522.69 A 58.08 58.08 0 0 0 1161.54 580.7700000000001" fill="#647feb"/><rect x="1161.5384615384617" y="464.61538461538464" width="116.15384615384616" height="116.15384615384616" fill="#ffffff"/><rect x="1161.54" y="464.62" width="58.08" height="58.08" fill="#8196ef"/><path d="M 1161.54 522.7 A 58.08 58.08 0 0 1  1219.62 464.62 L 1219.62 522.7L1161.54 522.7" fill="#a5b4f3"/><rect x="1219.62" y="464.62" width="58.08" height="58.08" fill="#91a4f1"/><path d="M 1219.62 522.7 A 58.08 58.08 0 0 1  1277.6999999999998 464.62 L 1277.6999999999998 522.7L1219.62 522.7" fill="#ced6f9"/><rect x="1161.54" y="522.69" width="58.08" height="58.08" fill="#fcfbfd"/><path d="M 1161.54 522.69 A 58.08 58.08 0 0 1  1219.62 580.7700000000001 L 1161.54 522.69 A 58.08 58.08 0 0 0 1219.62 580.7700000000001" fill="#f5f6fe"/><rect x="1219.62" y="522.69" width="58.08" height="58.08" fill="#4f6de8"/><path d="M 1219.62 522.69 A 58.08 58.08 0 0 1  1277.6999999999998 580.7700000000001 L 1219.62 522.69 A 58.08 58.08 0 0 0 1277.6999999999998 580.7700000000001" fill="#8fa2f0"/><rect x="1277.69" y="464.62" width="116.15" height="116.15" fill="#94a6f1"/><path d="M 1277.69 464.62 A 116.15 116.15 0 0 1  1393.8400000000001 580.77 L 1277.69 464.62 A 116.15 116.15 0 0 0 1393.8400000000001 580.77" fill="#4e6ce8"/><rect x="1393.8461538461538" y="464.61538461538464" width="116.15384615384616" height="116.15384615384616" fill="#ffffff"/><rect x="1393.85" y="464.62" width="58.08" height="58.08" fill="#e2e7fb"/><path d="M 1393.85 464.62 A 58.08 58.08 0 0 1  1451.9299999999998 522.7 L 1393.85 464.62 A 58.08 58.08 0 0 0 1451.9299999999998 522.7" fill="#7c92ee"/><rect x="1451.92" y="464.62" width="58.08" height="58.08" fill="#8297ef"/><path d="M 1451.92 464.62 A 58.08 58.08 0 0 1 1510 522.7 L 1451.92 522.7L1451.92 464.62" fill="#edf0fd"/><rect x="1393.85" y="522.69" width="58.08" height="58.08" fill="#f0eef4"/><path d="M 1393.85 522.69 A 58.08 58.08 0 0 1 1451.9299999999998 580.7700000000001 L 1393.85 580.7700000000001L1393.85 522.69" fill="#a494bb"/><rect x="1451.92" y="522.69" width="58.08" height="58.08" fill="#1b41e1"/><path d="M 1451.92 522.69 A 58.08 58.08 0 0 1  1510 580.7700000000001 L 1451.92 522.69 A 58.08 58.08 0 0 0 1510 580.7700000000001" fill="#e5e0ec"/><rect x="0" y="580.77" width="116.15" height="116.15" fill="#f6f8fe"/><path d="M 0 696.92 A 116.15 116.15 0 0 1  116.15 580.77 L 116.15 696.92L0 696.92" fill="#f4f2f7"/><rect x="116.15384615384616" y="580.7692307692308" width="116.15384615384616" height="116.15384615384616" fill="#ffffff"/><rect x="116.15" y="580.77" width="58.08" height="58.08" fill="#e7e3ed"/><path d="M 116.15 580.77 A 58.08 58.08 0 0 0 174.23000000000002 638.85 L 174.23000000000002 580.77L116.15 580.77" fill="#cad3f8"/><rect x="174.23" y="580.77" width="58.08" height="58.08" fill="#2c50e4"/><path d="M 174.23 638.85 A 58.08 58.08 0 0 1  232.31 580.77 L 174.23 638.85 A 58.08 58.08 0 0 0 232.31 580.77" fill="#efecf3"/><rect x="116.15" y="638.85" width="58.08" height="58.08" fill="#6d86ec"/><path d="M 116.15 638.85 A 58.08 58.08 0 0 1  174.23000000000002 696.9300000000001 L 116.15 638.85 A 58.08 58.08 0 0 0 174.23000000000002 696.9300000000001" fill="#dbd5e4"/><rect x="174.23" y="638.85" width="58.08" height="58.08" fill="#3f5fe6"/><path d="M 174.23 696.9300000000001 A 58.08 58.08 0 0 0 232.31 638.85 L 174.23 638.85L174.23 696.9300000000001" fill="#cfc6db"/><rect x="232.31" y="580.77" width="116.15" height="116.15" fill="#ad9fc2"/><path d="M 232.31 580.77 A 116.15 116.15 0 0 1  348.46000000000004 696.92 L 232.31 580.77 A 116.15 116.15 0 0 0 348.46000000000004 696.92" fill="#a292ba"/><rect x="348.46" y="580.77" width="116.15" height="116.15" fill="#e3deea"/><path d="M 348.46 696.92 A 116.15 116.15 0 0 1  464.61 580.77 L 464.61 696.92L348.46 696.92" fill="#d1d9f9"/><rect x="464.62" y="580.77" width="116.15" height="116.15" fill="#a393bb"/><path d="M 464.62 696.92 A 116.15 116.15 0 0 0 580.77 580.77 L 464.62 580.77L464.62 696.92" fill="#eff1fd"/><rect x="580.7692307692308" y="580.7692307692308" width="116.15384615384616" height="116.15384615384616" fill="#ffffff"/><rect x="580.77" y="580.77" width="58.08" height="58.08" fill="#7a91ee"/><path d="M 580.77 638.85 A 58.08 58.08 0 0 1  638.85 580.77 L 638.85 638.85L580.77 638.85" fill="#a797bd"/><rect x="638.85" y="580.77" width="58.08" height="58.08" fill="#d7cfe1"/><path d="M 638.85 580.77 A 58.08 58.08 0 0 1 696.9300000000001 638.85 L 638.85 638.85L638.85 580.77" fill="#afbdf5"/><rect x="580.77" y="638.85" width="58.08" height="58.08" fill="#6d86ec"/><path d="M 580.77 638.85 A 58.08 58.08 0 0 1 638.85 696.9300000000001 L 580.77 696.9300000000001L580.77 638.85" fill="#f3f5fd"/><rect x="638.85" y="638.85" width="58.08" height="58.08" fill="#e5e0ec"/><path d="M 638.85 696.9300000000001 A 58.08 58.08 0 0 0 696.9300000000001 638.85 L 638.85 638.85L638.85 696.9300000000001" fill="#c4b9d3"/><rect x="696.92" y="580.77" width="116.15" height="116.15" fill="#a6b5f3"/><path d="M 696.92 696.92 A 116.15 116.15 0 0 1  813.0699999999999 580.77 L 813.0699999999999 696.92L696.92 696.92" fill="#e1e6fb"/><rect x="813.08" y="580.77" width="116.15" height="116.15" fill="#d6cee0"/><path d="M 813.08 580.77 A 116.15 116.15 0 0 0 929.23 696.92 L 929.23 580.77L813.08 580.77" fill="#bfb3cf"/><rect x="929.23" y="580.77" width="116.15" height="116.15" fill="#8599ef"/><path d="M 929.23 580.77 A 116.15 116.15 0 0 1 1045.38 696.92 L 929.23 696.92L929.23 580.77" fill="#3f5fe6"/><rect x="1045.38" y="580.77" width="116.15" height="116.15" fill="#d1c9dd"/><path d="M 1045.38 696.92 A 116.15 116.15 0 0 1  1161.5300000000002 580.77 L 1045.38 696.92 A 116.15 116.15 0 0 0 1161.5300000000002 580.77" fill="#254ae3"/><rect x="1161.54" y="580.77" width="116.15" height="116.15" fill="#c6bcd5"/><path d="M 1161.54 696.92 A 116.15 116.15 0 0 1  1277.69 580.77 L 1277.69 696.92L1161.54 696.92" fill="#f9fafe"/><rect x="1277.6923076923078" y="580.7692307692308" width="116.15384615384616" height="116.15384615384616" fill="#ffffff"/><rect x="1277.69" y="580.77" width="58.08" height="58.08" fill="#8297ef"/><path d="M 1277.69 638.85 A 58.08 58.08 0 0 0 1335.77 580.77 L 1277.69 580.77L1277.69 638.85" fill="#a0b0f3"/><rect x="1335.77" y="580.77" width="58.08" height="58.08" fill="#4262e6"/><path d="M 1335.77 580.77 A 58.08 58.08 0 0 1 1393.85 638.85 L 1335.77 638.85L1335.77 580.77" fill="#1b41e1"/><rect x="1277.69" y="638.85" width="58.08" height="58.08" fill="#2e51e4"/><path d="M 1277.69 696.9300000000001 A 58.08 58.08 0 0 1  1335.77 638.85 L 1335.77 696.9300000000001L1277.69 696.9300000000001" fill="#f0f2fd"/><rect x="1335.77" y="638.85" width="58.08" height="58.08" fill="#beb2cf"/><path d="M 1335.77 638.85 A 58.08 58.08 0 0 1  1393.85 696.9300000000001 L 1335.77 638.85 A 58.08 58.08 0 0 0 1393.85 696.9300000000001" fill="#d3cbde"/><rect x="1393.85" y="580.77" width="116.15" height="116.15" fill="#9d8cb7"/><path d="M 1393.85 580.77 A 116.15 116.15 0 0 1 1510 696.92 L 1393.85 696.92L1393.85 580.77" fill="#d1c9dd"/></g></svg>