<?xml version="1.0" standalone="no"?><svg xmlns:xlink="http://www.w3.org/1999/xlink" xmlns="http://www.w3.org/2000/svg" viewBox="0 0 100 66.66666666666666" preserveAspectRatio="xMaxYMax slice"><g transform="scale(0.09246417013407304)"><rect x="0" y="0" width="1081.5" height="721" fill="#ffffff"/><rect x="0" y="0" width="180.25" height="180.25" fill="#ffffff"/><rect x="0" y="0" width="90.13" height="90.13" fill="#d5dcfa"/><path d="M 0 90.13 A 90.13 90.13 0 0 1  90.13 0 L 90.13 90.13L0 90.13" fill="#dce2fa"/><rect x="90.13" y="0" width="90.13" height="90.13" fill="#c2b7d2"/><path d="M 90.13 90.13 A 90.13 90.13 0 0 1  180.26 0 L 90.13 90.13 A 90.13 90.13 0 0 0 180.26 0" fill="#254ae3"/><rect x="0" y="90.13" width="90.13" height="90.13" fill="#2045e2"/><path d="M 0 90.13 A 90.13 90.13 0 0 0 90.13 180.26 L 90.13 90.13L0 90.13" fill="#506ee8"/><rect x="90.13" y="90.13" width="90.13" height="90.13" fill="#d3cbde"/><path d="M 90.13 90.13 A 90.13 90.13 0 0 1 180.26 180.26 L 90.13 180.26L90.13 90.13" fill="#cfc7db"/><rect x="180.25" y="0" width="180.25" height="180.25" fill="#ffffff"/><rect x="180.25" y="0" width="90.13" height="90.13" fill="#d4ccdf"/><path d="M 180.25 0 A 90.13 90.13 0 0 1  270.38 90.13 L 180.25 0 A 90.13 90.13 0 0 0 270.38 90.13" fill="#dfd9e7"/><rect x="270.38" y="0" width="90.13" height="90.13" fill="#2e52e4"/><path d="M 270.38 90.13 A 90.13 90.13 0 0 1  360.51 0 L 360.51 90.13L270.38 90.13" fill="#9b8ab5"/><rect x="180.25" y="90.13" width="90.13" height="90.13" fill="#5370e9"/><path d="M 180.25 180.26 A 90.13 90.13 0 0 0 270.38 90.13 L 180.25 90.13L180.25 180.26" fill="#cfd7f9"/><rect x="270.38" y="90.13" width="90.13" height="90.13" fill="#c8bed6"/><path d="M 270.38 180.26 A 90.13 90.13 0 0 1  360.51 90.13 L 360.51 180.26L270.38 180.26" fill="#b4a6c7"/><rect x="360.5" y="0" width="180.25" height="180.25" fill="#ffffff"/><rect x="360.5" y="0" width="90.13" height="90.13" fill="#d5cee0"/><path d="M 360.5 0 A 90.13 90.13 0 0 1  450.63 90.13 L 360.5 0 A 90.13 90.13 0 0 0 450.63 90.13" fill="#9b8ab5"/><rect x="450.63" y="0" width="90.13" height="90.13" fill="#5975e9"/><path d="M 450.63 90.13 A 90.13 90.13 0 0 1  540.76 0 L 450.63 90.13 A 90.13 90.13 0 0 0 540.76 0" fill="#d1c9dd"/><rect x="360.5" y="90.13" width="90.13" height="90.13" fill="#dae0fa"/><path d="M 360.5 90.13 A 90.13 90.13 0 0 0 450.63 180.26 L 450.63 90.13L360.5 90.13" fill="#d6cfe1"/><rect x="450.63" y="90.13" width="90.13" height="90.13" fill="#cec6db"/><path d="M 450.63 90.13 A 90.13 90.13 0 0 1 540.76 180.26 L 450.63 180.26L450.63 90.13" fill="#efecf3"/><rect x="540.75" y="0" width="180.25" height="180.25" fill="#ffffff"/><rect x="540.75" y="0" width="90.13" height="90.13" fill="#526fe9"/><path d="M 540.75 90.13 A 90.13 90.13 0 0 1  630.88 0 L 540.75 90.13 A 90.13 90.13 0 0 0 630.88 0" fill="#ccc3d9"/><rect x="630.88" y="0" width="90.13" height="90.13" fill="#bfcaf7"/><path d="M 630.88 0 A 90.13 90.13 0 0 1 721.01 90.13 L 630.88 90.13L630.88 0" fill="#7088ec"/><rect x="540.75" y="90.13" width="90.13" height="90.13" fill="#dcd6e5"/><path d="M 540.75 90.13 A 90.13 90.13 0 0 1  630.88 180.26 L 540.75 90.13 A 90.13 90.13 0 0 0 630.88 180.26" fill="#6c85ec"/><rect x="630.88" y="90.13" width="90.13" height="90.13" fill="#fbfbfc"/><path d="M 630.88 90.13 A 90.13 90.13 0 0 1  721.01 180.26 L 630.88 90.13 A 90.13 90.13 0 0 0 721.01 180.26" fill="#ffffff"/><rect x="721" y="0" width="180.25" height="180.25" fill="#ffffff"/><rect x="721" y="0" width="90.13" height="90.13" fill="#c2b8d2"/><path d="M 721 0 A 90.13 90.13 0 0 1  811.13 90.13 L 721 0 A 90.13 90.13 0 0 0 811.13 90.13" fill="#264be3"/><rect x="811.13" y="0" width="90.13" height="90.13" fill="#4867e7"/><path d="M 811.13 0 A 90.13 90.13 0 0 1 901.26 90.13 L 811.13 90.13L811.13 0" fill="#c1cbf7"/><rect x="721" y="90.13" width="90.13" height="90.13" fill="#e9e6ef"/><path d="M 721 90.13 A 90.13 90.13 0 0 1  811.13 180.26 L 721 90.13 A 90.13 90.13 0 0 0 811.13 180.26" fill="#e5e0ec"/><rect x="811.13" y="90.13" width="90.13" height="90.13" fill="#cbc2d8"/><path d="M 811.13 90.13 A 90.13 90.13 0 0 1  901.26 180.26 L 811.13 90.13 A 90.13 90.13 0 0 0 901.26 180.26" fill="#3d5ee6"/><rect x="901.25" y="0" width="180.25" height="180.25" fill="#ab9cc1"/><path d="M 901.25 180.25 A 180.25 180.25 0 0 1  1081.5 0 L 1081.5 180.25L901.25 180.25" fill="#bcb0cd"/><rect x="0" y="180.25" width="180.25" height="180.25" fill="#1f45e2"/><path d="M 0 180.25 A 180.25 180.25 0 0 1 180.25 360.5 L 0 360.5L0 180.25" fill="#a696bd"/><rect x="180.25" y="180.25" width="180.25" height="180.25" fill="#ffffff"/><rect x="180.25" y="180.25" width="90.13" height="90.13" fill="#d0c8dc"/><path d="M 180.25 270.38 A 90.13 90.13 0 0 0 270.38 180.25 L 180.25 180.25L180.25 270.38" fill="#cad3f8"/><rect x="270.38" y="180.25" width="90.13" height="90.13" fill="#607bea"/><path d="M 270.38 270.38 A 90.13 90.13 0 0 1  360.51 180.25 L 270.38 270.38 A 90.13 90.13 0 0 0 360.51 180.25" fill="#a6b5f3"/><rect x="180.25" y="270.38" width="90.13" height="90.13" fill="#e5e9fc"/><path d="M 180.25 360.51 A 90.13 90.13 0 0 0 270.38 270.38 L 180.25 270.38L180.25 360.51" fill="#d2cade"/><rect x="270.38" y="270.38" width="90.13" height="90.13" fill="#f0edf4"/><path d="M 270.38 360.51 A 90.13 90.13 0 0 0 360.51 270.38 L 270.38 270.38L270.38 360.51" fill="#b8accb"/><rect x="360.5" y="180.25" width="180.25" height="180.25" fill="#ffffff"/><rect x="360.5" y="180.25" width="90.13" height="90.13" fill="#c2b7d2"/><path d="M 360.5 180.25 A 90.13 90.13 0 0 1 450.63 270.38 L 360.5 270.38L360.5 180.25" fill="#e2e7fb"/><rect x="450.63" y="180.25" width="90.13" height="90.13" fill="#ece9f1"/><path d="M 450.63 270.38 A 90.13 90.13 0 0 1  540.76 180.25 L 450.63 270.38 A 90.13 90.13 0 0 0 540.76 180.25" fill="#cbc2d8"/><rect x="360.5" y="270.38" width="90.13" height="90.13" fill="#4967e7"/><path d="M 360.5 270.38 A 90.13 90.13 0 0 1 450.63 360.51 L 360.5 360.51L360.5 270.38" fill="#3456e5"/><rect x="450.63" y="270.38" width="90.13" height="90.13" fill="#7b92ee"/><path d="M 450.63 270.38 A 90.13 90.13 0 0 1 540.76 360.51 L 450.63 360.51L450.63 270.38" fill="#ffffff"/><rect x="540.75" y="180.25" width="180.25" height="180.25" fill="#fbfafc"/><path d="M 540.75 360.5 A 180.25 180.25 0 0 0 721 180.25 L 540.75 180.25L540.75 360.5" fill="#e0dae8"/><rect x="721" y="180.25" width="180.25" height="180.25" fill="#fcfcfd"/><path d="M 721 360.5 A 180.25 180.25 0 0 1  901.25 180.25 L 721 360.5 A 180.25 180.25 0 0 0 901.25 180.25" fill="#6781eb"/><rect x="901.25" y="180.25" width="180.25" height="180.25" fill="#ffffff"/><rect x="901.25" y="180.25" width="90.13" height="90.13" fill="#fbfafc"/><path d="M 901.25 180.25 A 90.13 90.13 0 0 0 991.38 270.38 L 991.38 180.25L901.25 180.25" fill="#d0c8dc"/><rect x="991.38" y="180.25" width="90.13" height="90.13" fill="#f0f3fd"/><path d="M 991.38 180.25 A 90.13 90.13 0 0 1  1081.51 270.38 L 991.38 180.25 A 90.13 90.13 0 0 0 1081.51 270.38" fill="#1c42e1"/><rect x="901.25" y="270.38" width="90.13" height="90.13" fill="#fbfafc"/><path d="M 901.25 270.38 A 90.13 90.13 0 0 1  991.38 360.51 L 901.25 270.38 A 90.13 90.13 0 0 0 991.38 360.51" fill="#b5c2f5"/><rect x="991.38" y="270.38" width="90.13" height="90.13" fill="#b6aac9"/><path d="M 991.38 360.51 A 90.13 90.13 0 0 1  1081.51 270.38 L 1081.51 360.51L991.38 360.51" fill="#a190b9"/><rect x="0" y="360.5" width="180.25" height="180.25" fill="#264ae3"/><path d="M 0 540.75 A 180.25 180.25 0 0 0 180.25 360.5 L 0 360.5L0 540.75" fill="#3355e4"/><rect x="180.25" y="360.5" width="180.25" height="180.25" fill="#ffffff"/><rect x="180.25" y="360.5" width="90.13" height="90.13" fill="#5370e9"/><path d="M 180.25 450.63 A 90.13 90.13 0 0 1  270.38 360.5 L 270.38 450.63L180.25 450.63" fill="#beb3cf"/><rect x="270.38" y="360.5" width="90.13" height="90.13" fill="#f6f4f8"/><path d="M 270.38 360.5 A 90.13 90.13 0 0 1 360.51 450.63 L 270.38 450.63L270.38 360.5" fill="#e2ddea"/><rect x="180.25" y="450.63" width="90.13" height="90.13" fill="#a697bd"/><path d="M 180.25 540.76 A 90.13 90.13 0 0 1  270.38 450.63 L 270.38 540.76L180.25 540.76" fill="#b4a6c7"/><rect x="270.38" y="450.63" width="90.13" height="90.13" fill="#d0c8dc"/><path d="M 270.38 540.76 A 90.13 90.13 0 0 1  360.51 450.63 L 360.51 540.76L270.38 540.76" fill="#d7d0e1"/><rect x="360.5" y="360.5" width="180.25" height="180.25" fill="#a08fb8"/><path d="M 360.5 540.75 A 180.25 180.25 0 0 1  540.75 360.5 L 360.5 540.75 A 180.25 180.25 0 0 0 540.75 360.5" fill="#dbd5e5"/><rect x="540.75" y="360.5" width="180.25" height="180.25" fill="#ffffff"/><rect x="540.75" y="360.5" width="90.13" height="90.13" fill="#b1a3c5"/><path d="M 540.75 450.63 A 90.13 90.13 0 0 0 630.88 360.5 L 540.75 360.5L540.75 450.63" fill="#c6bcd4"/><rect x="630.88" y="360.5" width="90.13" height="90.13" fill="#c7d0f8"/><path d="M 630.88 360.5 A 90.13 90.13 0 0 1  721.01 450.63 L 630.88 360.5 A 90.13 90.13 0 0 0 721.01 450.63" fill="#b1a4c5"/><rect x="540.75" y="450.63" width="90.13" height="90.13" fill="#e9edfc"/><path d="M 540.75 540.76 A 90.13 90.13 0 0 0 630.88 450.63 L 540.75 450.63L540.75 540.76" fill="#cac1d8"/><rect x="630.88" y="450.63" width="90.13" height="90.13" fill="#ded8e6"/><path d="M 630.88 540.76 A 90.13 90.13 0 0 0 721.01 450.63 L 630.88 450.63L630.88 540.76" fill="#b8abca"/><rect x="721" y="360.5" width="180.25" height="180.25" fill="#ffffff"/><rect x="721" y="360.5" width="90.13" height="90.13" fill="#778eed"/><path d="M 721 450.63 A 90.13 90.13 0 0 1  811.13 360.5 L 811.13 450.63L721 450.63" fill="#2a4ee3"/><rect x="811.13" y="360.5" width="90.13" height="90.13" fill="#fdfeff"/><path d="M 811.13 450.63 A 90.13 90.13 0 0 1  901.26 360.5 L 811.13 450.63 A 90.13 90.13 0 0 0 901.26 360.5" fill="#fcfcfd"/><rect x="721" y="450.63" width="90.13" height="90.13" fill="#bbafcd"/><path d="M 721 540.76 A 90.13 90.13 0 0 1  811.13 450.63 L 811.13 540.76L721 540.76" fill="#e5e1ec"/><rect x="811.13" y="450.63" width="90.13" height="90.13" fill="#d7d0e1"/><path d="M 811.13 540.76 A 90.13 90.13 0 0 0 901.26 450.63 L 811.13 450.63L811.13 540.76" fill="#d3dbf9"/><rect x="901.25" y="360.5" width="180.25" height="180.25" fill="#4c6ae8"/><path d="M 901.25 540.75 A 180.25 180.25 0 0 0 1081.5 360.5 L 901.25 360.5L901.25 540.75" fill="#a899bf"/><rect x="0" y="540.75" width="180.25" height="180.25" fill="#ffffff"/><rect x="0" y="540.75" width="90.13" height="90.13" fill="#7d93ee"/><path d="M 0 540.75 A 90.13 90.13 0 0 1 90.13 630.88 L 0 630.88L0 540.75" fill="#dcd6e5"/><rect x="90.13" y="540.75" width="90.13" height="90.13" fill="#4967e7"/><path d="M 90.13 630.88 A 90.13 90.13 0 0 1  180.26 540.75 L 90.13 630.88 A 90.13 90.13 0 0 0 180.26 540.75" fill="#c2b8d2"/><rect x="0" y="630.88" width="90.13" height="90.13" fill="#e2e7fb"/><path d="M 0 721.01 A 90.13 90.13 0 0 1  90.13 630.88 L 0 721.01 A 90.13 90.13 0 0 0 90.13 630.88" fill="#d5cddf"/><rect x="90.13" y="630.88" width="90.13" height="90.13" fill="#5572e9"/><path d="M 90.13 721.01 A 90.13 90.13 0 0 1  180.26 630.88 L 180.26 721.01L90.13 721.01" fill="#5b76ea"/><rect x="180.25" y="540.75" width="180.25" height="180.25" fill="#c7d0f8"/><path d="M 180.25 540.75 A 180.25 180.25 0 0 1  360.5 721 L 180.25 540.75 A 180.25 180.25 0 0 0 360.5 721" fill="#6e86ec"/><rect x="360.5" y="540.75" width="180.25" height="180.25" fill="#ffffff"/><rect x="360.5" y="540.75" width="90.13" height="90.13" fill="#afa1c4"/><path d="M 360.5 540.75 A 90.13 90.13 0 0 1  450.63 630.88 L 360.5 540.75 A 90.13 90.13 0 0 0 450.63 630.88" fill="#b2a4c6"/><rect x="450.63" y="540.75" width="90.13" height="90.13" fill="#beb3cf"/><path d="M 450.63 630.88 A 90.13 90.13 0 0 0 540.76 540.75 L 450.63 540.75L450.63 630.88" fill="#dbd5e5"/><rect x="360.5" y="630.88" width="90.13" height="90.13" fill="#bbafcd"/><path d="M 360.5 721.01 A 90.13 90.13 0 0 1  450.63 630.88 L 450.63 721.01L360.5 721.01" fill="#b0a2c4"/><rect x="450.63" y="630.88" width="90.13" height="90.13" fill="#6f87ec"/><path d="M 450.63 630.88 A 90.13 90.13 0 0 0 540.76 721.01 L 540.76 630.88L450.63 630.88" fill="#d6cee0"/><rect x="540.75" y="540.75" width="180.25" height="180.25" fill="#ffffff"/><rect x="540.75" y="540.75" width="90.13" height="90.13" fill="#a898be"/><path d="M 540.75 540.75 A 90.13 90.13 0 0 1 630.88 630.88 L 540.75 630.88L540.75 540.75" fill="#3456e5"/><rect x="630.88" y="540.75" width="90.13" height="90.13" fill="#bbafcd"/><path d="M 630.88 540.75 A 90.13 90.13 0 0 1  721.01 630.88 L 630.88 540.75 A 90.13 90.13 0 0 0 721.01 630.88" fill="#fcfcfd"/><rect x="540.75" y="630.88" width="90.13" height="90.13" fill="#efecf3"/><path d="M 540.75 630.88 A 90.13 90.13 0 0 1  630.88 721.01 L 540.75 630.88 A 90.13 90.13 0 0 0 630.88 721.01" fill="#e4dfeb"/><rect x="630.88" y="630.88" width="90.13" height="90.13" fill="#9e8cb7"/><path d="M 630.88 721.01 A 90.13 90.13 0 0 1  721.01 630.88 L 721.01 721.01L630.88 721.01" fill="#bec9f7"/><rect x="721" y="540.75" width="180.25" height="180.25" fill="#ffffff"/><rect x="721" y="540.75" width="90.13" height="90.13" fill="#dfd9e7"/><path d="M 721 630.88 A 90.13 90.13 0 0 1  811.13 540.75 L 811.13 630.88L721 630.88" fill="#f9f8fb"/><rect x="811.13" y="540.75" width="90.13" height="90.13" fill="#3f60e6"/><path d="M 811.13 540.75 A 90.13 90.13 0 0 1  901.26 630.88 L 811.13 540.75 A 90.13 90.13 0 0 0 901.26 630.88" fill="#9a88b4"/><rect x="721" y="630.88" width="90.13" height="90.13" fill="#9daef2"/><path d="M 721 721.01 A 90.13 90.13 0 0 0 811.13 630.88 L 721 630.88L721 721.01" fill="#f7f6f9"/><rect x="811.13" y="630.88" width="90.13" height="90.13" fill="#bbafcd"/><path d="M 811.13 721.01 A 90.13 90.13 0 0 0 901.26 630.88 L 811.13 630.88L811.13 721.01" fill="#7088ec"/><rect x="901.25" y="540.75" width="180.25" height="180.25" fill="#ffffff"/><rect x="901.25" y="540.75" width="90.13" height="90.13" fill="#fefeff"/><path d="M 901.25 630.88 A 90.13 90.13 0 0 1  991.38 540.75 L 991.38 630.88L901.25 630.88" fill="#e7ebfc"/><rect x="991.38" y="540.75" width="90.13" height="90.13" fill="#fdfdfe"/><path d="M 991.38 630.88 A 90.13 90.13 0 0 1  1081.51 540.75 L 1081.51 630.88L991.38 630.88" fill="#bfb3cf"/><rect x="901.25" y="630.88" width="90.13" height="90.13" fill="#b8c4f6"/><path d="M 901.25 630.88 A 90.13 90.13 0 0 0 991.38 721.01 L 991.38 630.88L901.25 630.88" fill="#eff2fd"/><rect x="991.38" y="630.88" width="90.13" height="90.13" fill="#9e8db7"/><path d="M 991.38 630.88 A 90.13 90.13 0 0 0 1081.51 721.01 L 1081.51 630.88L991.38 630.88" fill="#b3bff5"/></g></svg>