<?xml version="1.0" standalone="no"?><svg xmlns:xlink="http://www.w3.org/1999/xlink" xmlns="http://www.w3.org/2000/svg" viewBox="0 0 1000 500" preserveAspectRatio="xMaxYMax slice"><g transform="scale(0.6934812760055479)"><rect x="0" y="0" width="1442" height="721" fill="#ffffff"/><rect x="0" y="0" width="360.5" height="360.5" fill="#bfbdc6"/><polygon points="0,0 360.5,360.5 0,360.5" fill="#413c55"/><rect x="360.5" y="0" width="360.5" height="360.5" fill="#fdfcfd"/><rect x="360.5" y="0" width="360.5" height="360.5" fill="#f6f4f8"/><rect x="721" y="0" width="360.5" height="360.5" fill="#ffffff"/><rect x="721" y="0" width="180.25" height="180.25" fill="#625e73"/><polygon points="901.25,0 901.25,180.25 721,180.25" fill="#767284"/><rect x="901.25" y="0" width="180.25" height="180.25" fill="#231d3a"/><polygon points="901.25,0 1081.5,180.25 901.25,180.25" fill="#2a2541"/><rect x="721" y="180.25" width="180.25" height="180.25" fill="#413d55"/><polygon points="721,180.25 901.25,180.25 721,360.5" fill="#2a2440"/><rect x="901.25" y="180.25" width="180.25" height="180.25" fill="#f4f2f7"/><polygon points="901.25,180.25 1081.5,180.25 1081.5,360.5" fill="#7c788a"/><rect x="1081.5" y="0" width="360.5" height="360.5" fill="#ffffff"/><rect x="1081.5" y="0" width="180.25" height="180.25" fill="#a595bc"/><path d="M 1081.5 180.25 A 180.25 180.25 0 0 1  1261.75 0 L 1261.75 180.25L1081.5 180.25" fill="#a5a2ae"/><rect x="1261.75" y="0" width="180.25" height="180.25" fill="#c3b8d2"/><path d="M 1261.75 0 A 180.25 180.25 0 0 1 1442 180.25 L 1261.75 180.25L1261.75 0" fill="#e8e8eb"/><rect x="1081.5" y="180.25" width="180.25" height="180.25" fill="#817e8e"/><path d="M 1081.5 180.25 A 180.25 180.25 0 0 0 1261.75 360.5 L 1261.75 180.25L1081.5 180.25" fill="#ece9f1"/><rect x="1261.75" y="180.25" width="180.25" height="180.25" fill="#bbafcd"/><path d="M 1261.75 360.5 A 180.25 180.25 0 0 0 1442 180.25 L 1261.75 180.25L1261.75 360.5" fill="#b1a4c5"/><rect x="0" y="360.5" width="360.5" height="360.5" fill="#ffffff"/><rect x="0" y="360.5" width="180.25" height="180.25" fill="#cfcdd4"/><circle cx="90.125" cy="450.625" r="90.125" fill="#cac0d8"/><rect x="180.25" y="360.5" width="180.25" height="180.25" fill="#ececee"/><rect x="180.25" y="360.5" width="180.25" height="180.25" fill="#d2cade"/><rect x="0" y="540.75" width="180.25" height="180.25" fill="#8e8b9a"/><circle cx="90.125" cy="630.875" r="90.125" fill="#dddce0"/><rect x="180.25" y="540.75" width="180.25" height="180.25" fill="#d0c8dc"/><rect x="180.25" y="540.75" width="180.25" height="180.25" fill="#d3d2d7"/><rect x="360.5" y="360.5" width="360.5" height="360.5" fill="#ffffff"/><rect x="360.5" y="360.5" width="180.25" height="180.25" fill="#d1c9dd"/><path d="M 360.5 540.75 A 180.25 180.25 0 0 1  540.75 360.5 L 540.75 540.75L360.5 540.75" fill="#d0c7dc"/><rect x="540.75" y="360.5" width="180.25" height="180.25" fill="#cbcad1"/><path d="M 540.75 360.5 A 180.25 180.25 0 0 1 721 540.75 L 540.75 540.75L540.75 360.5" fill="#221d3a"/><rect x="360.5" y="540.75" width="180.25" height="180.25" fill="#4c485f"/><path d="M 360.5 540.75 A 180.25 180.25 0 0 0 540.75 721 L 540.75 540.75L360.5 540.75" fill="#9e8db7"/><rect x="540.75" y="540.75" width="180.25" height="180.25" fill="#9f8eb8"/><path d="M 540.75 721 A 180.25 180.25 0 0 0 721 540.75 L 540.75 540.75L540.75 721" fill="#bbafcd"/><rect x="721" y="360.5" width="360.5" height="360.5" fill="#ffffff"/><rect x="721" y="360.5" width="180.25" height="180.25" fill="#a494bb"/><path d="M 721 540.75 A 180.25 180.25 0 0 0 901.25 360.5 L 721 360.5L721 540.75" fill="#c9c0d7"/><rect x="901.25" y="360.5" width="180.25" height="180.25" fill="#ccc2d9"/><path d="M 901.25 360.5 A 180.25 180.25 0 0 0 1081.5 540.75 L 1081.5 360.5L901.25 360.5" fill="#9d8bb6"/><rect x="721" y="540.75" width="180.25" height="180.25" fill="#6a6679"/><path d="M 721 540.75 A 180.25 180.25 0 0 1 901.25 721 L 721 721L721 540.75" fill="#c8c6ce"/><rect x="901.25" y="540.75" width="180.25" height="180.25" fill="#d0c7dc"/><path d="M 901.25 721 A 180.25 180.25 0 0 1  1081.5 540.75 L 1081.5 721L901.25 721" fill="#a4a2ae"/><rect x="1081.5" y="360.5" width="360.5" height="360.5" fill="#ffffff"/><rect x="1081.5" y="360.5" width="180.25" height="180.25" fill="#e9e5ee"/><polygon points="1261.75,360.5 1261.75,540.75 1081.5,540.75" fill="#a899bf"/><rect x="1261.75" y="360.5" width="180.25" height="180.25" fill="#a292ba"/><polygon points="1261.75,360.5 1442,540.75 1261.75,540.75" fill="#848191"/><rect x="1081.5" y="540.75" width="180.25" height="180.25" fill="#312b46"/><polygon points="1081.5,540.75 1261.75,540.75 1261.75,721" fill="#a08eb8"/><rect x="1261.75" y="540.75" width="180.25" height="180.25" fill="#b4a7c7"/><polygon points="1261.75,540.75 1442,540.75 1261.75,721" fill="#f6f5f8"/></g></svg>